<?xml version="1.0" encoding="utf-8"?>
<!-- Generator: Adobe Illustrator 16.0.0, SVG Export Plug-In . SVG Version: 6.00 Build 0)  -->
<!DOCTYPE svg PUBLIC "-//W3C//DTD SVG 1.1//EN" "http://www.w3.org/Graphics/SVG/1.1/DTD/svg11.dtd">
<svg version="1.1" id="Layer_1" xmlns="http://www.w3.org/2000/svg" xmlns:xlink="http://www.w3.org/1999/xlink" x="0px" y="0px"
	 width="30px" height="30px" viewBox="0 0 30 30" style="enable-background:new 0 0 30 30;" xml:space="preserve">
<g>
	<defs>
		<rect id="SVGID_1_" x="1" y="1" width="28" height="28"/>
	</defs>
	<clipPath id="SVGID_2_">
		<use xlink:href="#SVGID_1_"  style="overflow:visible;"/>
	</clipPath>
	<path style="clip-path:url(#SVGID_2_);" d="M3.545,3.545h22.91v22.91h-6.604v-8.591h3.302l0.478-3.819h-3.779V11.58
		c0-1.112,0.275-1.87,1.87-1.87h2.067V6.25c-0.352-0.047-1.577-0.118-2.982-0.118c-2.932,0-4.932,1.762-4.932,5.049v2.864h-3.341
		v3.819h3.341v8.591H3.545V3.545z M3.545,1C2.155,1,1,2.154,1,3.545v22.91C1,27.846,2.155,29,3.545,29h22.91
		C27.846,29,29,27.846,29,26.455V3.545C29,2.154,27.846,1,26.455,1H3.545z"/>
</g>
</svg>
