<svg xmlns="http://www.w3.org/2000/svg" width="151" height="65" viewBox="0 0 151 65">
  <g fill="none" fill-rule="evenodd" transform="translate(8 17)">
    <path fill="#7F7F7F" d="M111.891,6.8 C108.308,6.8 105.475,7.75 103.308,8.185 L102.64,13.63 C103.722,13.112 107.141,12.162 109.976,12.073 C112.81,11.989 114.478,12.593 113.893,15.015 C105.475,15.015 99.806,16.743 98.638,22.189 C96.968,31.531 107.226,31.271 111.31,27.208 L110.808,29.455 L118.311,29.455 L121.564,14.58 C122.894,8.268 117.142,6.713 111.891,6.8 Z M112.392,22.019 C111.976,24.006 110.394,24.873 108.475,24.961 C106.807,25.045 105.306,23.575 106.39,21.846 C107.226,20.375 109.559,20.03 110.976,20.03 C111.557,20.03 112.229,20.03 112.81,20.03 C112.644,20.72 112.557,21.328 112.392,22.019 Z"/>
    <polygon fill="#7F7F7F" points="127.98 .918 121.775 29.455 129.396 29.455 135.678 .918 127.98 .918"/>
    <path fill="#7F7F7F" d="M92.969,1.007 L79.016,1.007 L72.831,29.455 L80.935,29.455 L83.026,20.029 L88.791,20.029 C94.471,20.029 99.15,16.571 100.404,10.69 C101.824,4.033 96.979,1.007 92.969,1.007 Z M92.718,10.69 C92.216,12.853 90.044,14.581 87.953,14.581 L84.194,14.581 L85.866,6.8 L89.876,6.8 C91.967,6.8 93.218,8.529 92.718,10.69 Z"/>
    <path fill="#000" d="M38.827,6.8 C35.285,6.8 32.483,7.75 30.426,8.185 L29.767,13.63 C30.754,13.112 34.131,12.162 36.931,12.073 C39.731,11.989 41.377,12.593 40.883,15.015 C32.567,15.015 26.967,16.743 25.815,22.189 C24.166,31.531 34.296,31.271 38.247,27.208 L37.756,29.455 L45.25,29.455 L48.46,14.58 C49.776,8.268 44.011,6.713 38.827,6.8 Z M39.4,22.019 C38.988,24.006 37.342,24.873 35.45,24.961 C33.803,25.045 32.401,23.575 33.472,21.846 C34.295,20.375 36.602,20.03 37.919,20.03 C38.577,20.03 39.151,20.03 39.812,20.03 C39.65,20.72 39.482,21.328 39.4,22.019 Z"/>
    <polygon fill="#000" points="51.724 7.208 59.216 7.208 60.426 20.458 67.757 7.208 75.491 7.208 57.685 38.918 49.306 38.918 54.786 29.596 51.724 7.208"/>
    <path fill="#000" d="M20.187,1.007 L6.197,1.007 L0,29.455 L8.212,29.455 L10.22,20.029 L16.083,20.029 C21.695,20.029 26.387,16.571 27.643,10.69 C29.067,4.033 24.291,1.007 20.187,1.007 Z M19.934,10.69 C19.433,12.853 17.34,14.581 15.246,14.581 L11.392,14.581 L13.151,6.8 L17.17,6.8 C19.183,6.8 20.521,8.529 19.934,10.69 Z"/>
  </g>
</svg>
