<?xml version="1.0" encoding="utf-8"?>
<!-- Generator: Adobe Illustrator 23.0.4, SVG Export Plug-In . SVG Version: 6.00 Build 0)  -->
<svg version="1.1" id="Lager_1" xmlns="http://www.w3.org/2000/svg" xmlns:xlink="http://www.w3.org/1999/xlink" x="0px" y="0px"
	 width="124.6px" height="65px" viewBox="0 0 124.6 65" style="enable-background:new 0 0 124.6 65;" xml:space="preserve">
<style type="text/css">
	.st0{fill:#7F7F7F;}
</style>
<g>
	<g>
		<g>
			<path class="st0" d="M116.9,44.5c0-1.7-1.2-2.9-2.9-2.9c-1.7,0-2.9,1.2-2.9,2.9c0,1.7,1.2,2.9,2.9,2.9
				C115.7,47.4,116.9,46.2,116.9,44.5L116.9,44.5L116.9,44.5z M113.3,44.6v1.9h-0.6v-4.2h1.5c0.9,0,1.3,0.4,1.3,1.2
				c0,0.5-0.3,0.8-0.7,0.9v0c0.4,0.1,0.5,0.4,0.6,1c0.1,0.4,0.1,1,0.3,1.2h-0.7c-0.2-0.4-0.2-1-0.3-1.4c-0.1-0.4-0.3-0.5-0.7-0.5
				L113.3,44.6L113.3,44.6z M114,44.1c0.6,0,0.8-0.3,0.8-0.6c0-0.3-0.2-0.6-0.8-0.6h-0.8v1.2H114L114,44.1z M110.5,44.5
				c0-2.1,1.7-3.5,3.6-3.5c1.9,0,3.6,1.4,3.6,3.5c0,2.1-1.7,3.5-3.6,3.5C112.1,48,110.5,46.6,110.5,44.5L110.5,44.5z"/>
		</g>
		<g>
			<g>
				<g>
					<polygon class="st0" points="98.2,47.4 94.1,42.8 90,47.4 81.5,47.4 89.8,38 81.5,28.6 90.3,28.6 94.4,33.2 98.4,28.6 
						106.9,28.6 98.6,38 107,47.4 					"/>
					<polygon class="st0" points="65.1,47.4 65.1,17.8 81.5,17.8 81.5,24.4 72,24.4 72,28.6 81.5,28.6 81.5,35 72,35 72,40.8 
						81.5,40.8 81.5,47.4 					"/>
				</g>
				<path d="M58.2,17.8v12.1h-0.1c-1.5-1.8-3.4-2.4-5.7-2.4c-4.5,0-8,3.1-9.2,7.2c-1.4-4.5-4.9-7.3-10.1-7.3c-4.3,0-7.6,1.9-9.4,5
					v-3.9h-8.8v-4.2h9.6v-6.6H7.1v29.5h7.8V35h7.8c-0.2,0.9-0.4,1.9-0.4,2.9c0,6.2,4.7,10.5,10.7,10.5c5.1,0,8.4-2.4,10.1-6.7h-6.7
					c-0.9,1.3-1.6,1.7-3.4,1.7c-2.1,0-3.9-1.8-3.9-4h13.7c0.6,4.9,4.4,9.1,9.6,9.1c2.3,0,4.3-1.1,5.6-3h0.1v1.9h6.9V17.8H58.2z
					 M29.4,35c0.4-1.9,1.9-3.1,3.7-3.1c2,0,3.4,1.2,3.7,3.1C37,35,29.4,35,29.4,35z M54,42.9c-2.5,0-4.1-2.4-4.1-4.9
					c0-2.6,1.4-5.2,4.1-5.2c2.9,0,4,2.5,4,5.2C58,40.5,56.8,42.9,54,42.9z"/>
			</g>
		</g>
	</g>
</g>
</svg>
