<svg xmlns="http://www.w3.org/2000/svg" width="80" height="65" viewBox="0 0 80 65">
  <g fill="none" fill-rule="evenodd" transform="translate(8 12)">
    <path fill="#7F7F7F" d="M32.434,34.957 C35.851,38.107 40.442,40.018 45.434,40.018 C56.155,40.018 64.833,31.272 64.833,20.517 C64.833,9.729 56.155,0.984 45.434,0.984 C40.441,0.984 35.851,2.894 32.434,6.044 C28.514,9.628 26.034,14.789 26.034,20.518 C26.034,26.246 28.513,31.406 32.434,34.957 Z"/>
    <path fill="#000" d="M38.699,18.439 C38.632,17.736 38.497,17.066 38.364,16.362 L26.503,16.362 C26.637,15.658 26.838,14.988 27.039,14.318 L37.794,14.318 C37.559,13.615 37.291,12.911 36.99,12.241 L27.876,12.241 C28.211,11.538 28.58,10.834 28.982,10.164 L35.851,10.164 C35.415,9.46 34.913,8.756 34.377,8.12 L30.457,8.12 C31.06,7.383 31.73,6.679 32.434,6.043 C28.983,2.927 24.426,0.983 19.4,0.983 C8.711,0.983 0,9.728 0,20.516 C0,31.271 8.711,40.017 19.399,40.017 C24.425,40.017 28.982,38.107 32.433,34.956 C33.137,34.319 33.773,33.649 34.376,32.913 L30.456,32.913 C29.92,32.243 29.451,31.572 28.982,30.835 L35.851,30.835 C36.287,30.165 36.655,29.495 36.99,28.759 L27.876,28.759 C27.575,28.088 27.273,27.418 27.039,26.714 L37.794,26.714 C38.028,26.044 38.196,25.341 38.363,24.637 C38.497,23.967 38.631,23.263 38.698,22.56 C38.765,21.89 38.799,21.22 38.799,20.516 C38.8,19.813 38.766,19.109 38.699,18.439 Z"/>
    <path fill="#FFF" d="M45.266 16.027L44.897 18.172C44.16 17.803 43.624 17.636 43.021 17.636 41.446 17.636 40.341 19.177 40.341 21.355 40.341 22.862 41.078 23.767 42.318 23.767 42.82 23.767 43.423 23.6 44.094 23.264L43.726 25.51C42.955 25.71 42.453 25.811 41.883 25.811 39.604 25.811 38.197 24.169 38.197 21.522 38.197 18.004 40.14 15.525 42.921 15.525 43.29 15.525 43.625 15.559 43.893 15.626L44.73 15.827C44.998 15.927 45.065 15.96 45.266 16.027zM38.498 17.501C38.432 17.501 38.364 17.501 38.297 17.501 37.593 17.501 37.191 17.836 36.554 18.808L36.756 17.568 34.846 17.568 33.539 25.61 35.65 25.61C36.421 20.685 36.622 19.847 37.627 19.847 37.694 19.847 37.694 19.847 37.76 19.847 37.962 18.875 38.23 18.172 38.565 17.535L38.498 17.501zM26.369 25.51C25.799 25.71 25.33 25.778 24.861 25.778 23.789 25.778 23.186 25.174 23.186 24.003 23.186 23.802 23.219 23.532 23.253 23.299L23.387 22.495 23.487 21.857 24.392 16.362 26.47 16.362 26.235 17.568 27.307 17.568 27.039 19.545 25.967 19.545 25.397 22.896C25.364 23.03 25.364 23.13 25.364 23.231 25.364 23.633 25.565 23.801 26.068 23.801 26.302 23.801 26.504 23.801 26.637 23.734L26.369 25.51zM18.294 20.115C18.294 21.12 18.763 21.824 19.869 22.36 20.74 22.762 20.874 22.896 20.874 23.231 20.874 23.734 20.505 23.968 19.667 23.968 19.031 23.968 18.461 23.867 17.792 23.667L17.49 25.51 17.591 25.543 17.96 25.609C18.094 25.642 18.262 25.676 18.53 25.676 18.999 25.743 19.401 25.743 19.669 25.743 21.88 25.743 22.919 24.905 22.919 23.062 22.919 21.956 22.483 21.319 21.445 20.817 20.54 20.415 20.44 20.314 20.44 19.946 20.44 19.51 20.809 19.309 21.479 19.309 21.881 19.309 22.451 19.343 22.987 19.409L23.289 17.566C22.752 17.465 21.915 17.399 21.446 17.399 19.098 17.401 18.261 18.641 18.294 20.115zM61.315 25.609L59.338 25.609 59.439 24.838C58.87 25.441 58.267 25.709 57.496 25.709 55.955 25.709 54.95 24.403 54.95 22.392 54.95 19.712 56.525 17.434 58.367 17.434 59.205 17.434 59.808 17.802 60.378 18.539L60.847 15.725 62.925 15.725 61.315 25.609zM58.233 23.733C59.205 23.733 59.875 22.593 59.875 21.019 59.875 19.981 59.507 19.444 58.77 19.444 57.832 19.444 57.128 20.55 57.128 22.125 57.127 23.197 57.496 23.733 58.233 23.733zM32.802 25.441C32.065 25.676 31.394 25.777 30.624 25.777 28.278 25.777 27.072 24.537 27.072 22.158 27.072 19.41 28.613 17.367 30.724 17.367 32.467 17.367 33.572 18.506 33.572 20.282 33.572 20.885 33.505 21.454 33.304 22.293L29.15 22.293C29.116 22.393 29.116 22.46 29.116 22.527 29.116 23.465 29.753 23.934 30.959 23.934 31.73 23.934 32.399 23.8 33.137 23.431L32.802 25.441zM31.629 20.65C31.629 20.483 31.629 20.349 31.629 20.249 31.629 19.579 31.261 19.21 30.624 19.21 29.953 19.21 29.484 19.712 29.284 20.65L31.629 20.65z"/>
    <polygon fill="#FFF" points="10.286 25.609 8.209 25.609 9.415 18.004 6.701 25.609 5.26 25.609 5.093 18.07 3.82 25.609 1.876 25.609 3.518 15.726 6.534 15.726 6.634 21.856 8.644 15.726 11.928 15.726"/>
    <path fill="#FFF" d="M15.479 22.024C15.278 22.024 15.178 21.99 15.01 21.99 13.838 21.99 13.235 22.427 13.235 23.23 13.235 23.733 13.503 24.035 13.972 24.035 14.843 24.035 15.446 23.23 15.479 22.024zM17.021 25.609L15.278 25.609 15.312 24.771C14.776 25.441 14.072 25.744 13.101 25.744 11.962 25.744 11.192 24.873 11.192 23.565 11.192 21.588 12.532 20.449 14.877 20.449 15.112 20.449 15.414 20.483 15.749 20.515 15.816 20.248 15.816 20.147 15.816 20.013 15.816 19.477 15.447 19.276 14.476 19.276 13.873 19.276 13.203 19.343 12.733 19.477L12.431 19.578 12.23 19.612 12.532 17.802C13.571 17.5 14.274 17.4 15.045 17.4 16.854 17.4 17.826 18.204 17.826 19.745 17.826 20.147 17.793 20.449 17.659 21.353L17.19 24.202 17.123 24.704 17.089 25.106 17.056 25.407 17.021 25.609zM48.65 22.024C48.416 22.024 48.315 21.99 48.181 21.99 46.975 21.99 46.372 22.427 46.372 23.23 46.372 23.733 46.673 24.035 47.143 24.035 47.98 24.035 48.617 23.23 48.65 22.024zM50.191 25.609L48.449 25.609 48.482 24.771C47.946 25.441 47.243 25.744 46.271 25.744 45.132 25.744 44.361 24.873 44.361 23.565 44.361 21.588 45.701 20.449 48.047 20.449 48.281 20.449 48.583 20.483 48.885 20.515 48.952 20.248 48.986 20.147 48.986 20.013 48.986 19.477 48.617 19.276 47.646 19.276 47.043 19.276 46.339 19.343 45.87 19.477L45.602 19.578 45.4 19.612 45.701 17.802C46.74 17.5 47.443 17.4 48.214 17.4 50.023 17.4 50.962 18.204 50.962 19.745 50.962 20.147 50.962 20.449 50.795 21.353L50.359 24.202 50.292 24.704 50.226 25.106 50.192 25.407 50.192 25.609 50.191 25.609zM55.82 17.501C55.753 17.501 55.686 17.501 55.619 17.501 54.915 17.501 54.514 17.836 53.877 18.808L54.078 17.568 52.168 17.568 50.894 25.61 52.972 25.61C53.743 20.685 53.944 19.847 54.949 19.847 55.016 19.847 55.016 19.847 55.083 19.847 55.284 18.875 55.552 18.172 55.887 17.535L55.82 17.501z"/>
  </g>
</svg>
