<?xml version="1.0" encoding="utf-8"?>
<!-- Generator: Adobe Illustrator 16.0.0, SVG Export Plug-In . SVG Version: 6.00 Build 0)  -->
<!DOCTYPE svg PUBLIC "-//W3C//DTD SVG 1.1//EN" "http://www.w3.org/Graphics/SVG/1.1/DTD/svg11.dtd">
<svg version="1.1" id="Layer_1" xmlns="http://www.w3.org/2000/svg" xmlns:xlink="http://www.w3.org/1999/xlink" x="0px" y="0px"
	 width="32px" height="32px" viewBox="0 0 32 32" style="enable-background:new 0 0 32 32;" xml:space="preserve">
<g>
	<path style="fill:#191919;" d="M16,4.112c3.871,0,4.33,0.017,5.859,0.085c1.414,0.064,2.182,0.301,2.693,0.5
		c0.629,0.232,1.199,0.602,1.666,1.084c0.482,0.468,0.854,1.038,1.084,1.668c0.199,0.51,0.436,1.277,0.5,2.691
		c0.07,1.529,0.086,1.988,0.086,5.86c0,3.871-0.016,4.33-0.086,5.858c-0.064,1.415-0.301,2.184-0.5,2.693
		c-0.486,1.264-1.486,2.264-2.75,2.752c-0.512,0.197-1.279,0.434-2.693,0.499c-1.529,0.069-1.988,0.085-5.859,0.085
		s-4.33-0.016-5.859-0.085c-1.414-0.065-2.182-0.302-2.693-0.499c-0.629-0.232-1.199-0.604-1.666-1.084
		c-0.482-0.469-0.854-1.039-1.084-1.668c-0.199-0.51-0.436-1.278-0.5-2.693c-0.068-1.528-0.086-1.987-0.086-5.858
		c0-3.872,0.018-4.331,0.086-5.86c0.064-1.414,0.301-2.182,0.5-2.691c0.232-0.63,0.602-1.2,1.084-1.668
		C6.248,5.299,6.818,4.93,7.449,4.697c0.51-0.199,1.277-0.436,2.691-0.5C11.67,4.129,12.129,4.112,16,4.112 M16,1.5
		c-3.938,0-4.432,0.018-5.979,0.088c-1.543,0.07-2.598,0.314-3.52,0.674C5.535,2.625,4.658,3.197,3.934,3.935
		C3.197,4.658,2.625,5.535,2.262,6.502c-0.359,0.922-0.604,1.977-0.674,3.521C1.516,11.568,1.5,12.062,1.5,16.001
		c0,3.938,0.016,4.432,0.088,5.978c0.07,1.543,0.314,2.598,0.674,3.52c0.363,0.968,0.936,1.845,1.672,2.568
		c0.725,0.738,1.602,1.309,2.568,1.672c0.922,0.359,1.977,0.605,3.52,0.676C11.568,30.484,12.062,30.5,16,30.5
		s4.432-0.016,5.979-0.086c1.543-0.07,2.598-0.316,3.52-0.676c1.947-0.752,3.488-2.293,4.24-4.24
		c0.359-0.922,0.605-1.977,0.676-3.52c0.07-1.547,0.086-2.04,0.086-5.978c0-3.938-0.016-4.433-0.086-5.979
		c-0.07-1.544-0.316-2.599-0.676-3.521c-0.363-0.967-0.934-1.844-1.672-2.567c-0.725-0.737-1.602-1.31-2.568-1.673
		c-0.922-0.359-1.977-0.604-3.52-0.674C20.432,1.518,19.938,1.5,16,1.5L16,1.5L16,1.5z"/>
	<path style="fill:#191919;" d="M16,8.555c-4.111,0-7.445,3.334-7.445,7.446c0,4.111,3.334,7.446,7.445,7.446
		s7.445-3.335,7.445-7.446l0,0C23.445,11.889,20.111,8.555,16,8.555z M16,20.834c-2.67,0-4.832-2.164-4.832-4.834
		S13.33,11.168,16,11.168s4.834,2.162,4.834,4.833C20.834,18.67,18.67,20.834,16,20.834z"/>
	<circle style="fill:#191919;" cx="23.74" cy="8.261" r="1.739"/>
</g>
</svg>
